<?xml version="1.0" encoding="utf-8"?>
<!-- Generator: Adobe Illustrator 24.3.0, SVG Export Plug-In . SVG Version: 6.00 Build 0)  -->
<svg version="1.1" id="Layer_1" xmlns="http://www.w3.org/2000/svg" xmlns:xlink="http://www.w3.org/1999/xlink" x="0px" y="0px"
	 viewBox="0 0 32 32" enable-background="new 0 0 32 32" xml:space="preserve">
<g>
	<path d="M26.297,6.139h-3.354V5.634c0-0.314,0.311-0.569,0.694-0.569h1.965c0.383,0,0.694,0.255,0.694,0.569V6.139z"/>
	<path d="M21.209,16.347c0.239,0.1,0.479,0.17,0.72,0.237v-2.546c0-0.834,0.406-1.63,1.087-2.129
		c0.399-0.293,0.566-0.806,0.414-1.274c-0.041-0.128-0.062-0.265-0.062-0.408c0-0.428,0.214-0.822,0.573-1.055
		c0.142-0.092,0.228-0.25,0.228-0.419V6.792h0.929v1.974c0,0.167,0.083,0.322,0.222,0.415c0.347,0.233,0.554,0.624,0.554,1.046
		c0,0.134-0.022,0.267-0.066,0.396c-0.16,0.473,0.002,0.991,0.404,1.29c0.677,0.502,1.064,1.276,1.064,2.125v2.518
		c0.341-0.014,0.679,0,1,0.056v-2.574c0-1.168-0.535-2.235-1.469-2.928c-0.053-0.04-0.073-0.104-0.053-0.166
		c0.079-0.232,0.119-0.474,0.119-0.718c0-0.662-0.285-1.282-0.775-1.707V6.292c0-0.276-0.224-0.5-0.5-0.5h-1.929
		c-0.276,0-0.5,0.224-0.5,0.5v2.21c-0.506,0.426-0.801,1.053-0.801,1.725c0,0.247,0.037,0.486,0.11,0.714
		c0.02,0.06-0.002,0.123-0.055,0.161c-0.937,0.687-1.495,1.784-1.495,2.936v2.221C21.019,16.278,21.112,16.306,21.209,16.347z"/>
	<path d="M17.12,6.139h-3.354V5.634c0-0.314,0.311-0.569,0.694-0.569h1.965c0.383,0,0.694,0.255,0.694,0.569V6.139z"/>
	<path d="M12.752,16.463v-2.425c0-0.834,0.406-1.63,1.089-2.13c0.398-0.293,0.563-0.806,0.412-1.273
		c-0.041-0.128-0.062-0.265-0.062-0.408c0-0.427,0.215-0.822,0.573-1.056c0.142-0.092,0.228-0.25,0.228-0.419V6.792h0.929v1.974
		c0,0.167,0.083,0.322,0.222,0.415c0.347,0.233,0.554,0.624,0.554,1.046c0,0.134-0.022,0.267-0.066,0.396
		c-0.16,0.473,0.002,0.991,0.404,1.29c0.677,0.502,1.064,1.276,1.064,2.125v2.398c0.229,0.045,0.439,0.113,0.606,0.225
		c0.149,0.1,0.275,0.219,0.394,0.342v-2.966c0-1.168-0.535-2.235-1.469-2.928c-0.053-0.04-0.073-0.104-0.053-0.166
		c0.079-0.232,0.119-0.474,0.119-0.718c0-0.662-0.285-1.282-0.775-1.707V6.292c0-0.276-0.224-0.5-0.5-0.5h-1.929
		c-0.276,0-0.5,0.224-0.5,0.5v2.21c-0.506,0.427-0.801,1.054-0.801,1.725c0,0.247,0.037,0.486,0.11,0.714
		c0.02,0.06-0.002,0.124-0.053,0.161c-0.938,0.686-1.497,1.784-1.497,2.936v2.425H12.752z"/>
	<path d="M7.944,6.169H4.59V5.664c0-0.314,0.311-0.569,0.694-0.569h1.965c0.383,0,0.694,0.255,0.694,0.569V6.169z"/>
	<path d="M3.575,16.66v-2.592c0-0.834,0.406-1.63,1.088-2.129c0.398-0.292,0.564-0.804,0.414-1.277
		c-0.042-0.125-0.062-0.262-0.062-0.404c0-0.427,0.215-0.822,0.573-1.056c0.142-0.092,0.228-0.25,0.228-0.419v-1.96h0.929v1.974
		c0,0.167,0.083,0.323,0.222,0.416C7.312,9.443,7.52,9.834,7.52,10.257c0,0.133-0.022,0.266-0.066,0.396
		c-0.16,0.473,0.003,0.992,0.405,1.291c0.676,0.502,1.063,1.276,1.063,2.125v2.696c0.165,0.014,0.33,0.013,0.495,0.032
		c0.165,0.019,0.337,0.066,0.505,0.128v-2.856c0-1.151-0.549-2.246-1.468-2.927C8.4,11.101,8.38,11.035,8.4,10.975
		C8.479,10.742,8.52,10.5,8.52,10.257c0-0.663-0.285-1.283-0.775-1.708V6.322c0-0.276-0.224-0.5-0.5-0.5H5.315
		c-0.276,0-0.5,0.224-0.5,0.5v2.21C4.31,8.959,4.015,9.585,4.015,10.257c0,0.249,0.038,0.489,0.11,0.712
		c0.02,0.061-0.002,0.125-0.054,0.163c-0.937,0.687-1.496,1.784-1.496,2.936v2.539C2.908,16.633,3.242,16.65,3.575,16.66z"/>
	<path d="M29.5,28h-28C1.224,28,1,27.776,1,27.5v-11C1,16.224,1.224,16,1.5,16h28c0.276,0,0.5,0.224,0.5,0.5v11
		C30,27.776,29.776,28,29.5,28z M2,27h27V17H2V27z"/>
	<path d="M17.77,22.415h-3.79c-0.729,0-1.322-0.593-1.322-1.322v-0.947c0-0.729,0.593-1.322,1.322-1.322h3.79
		c0.729,0,1.322,0.593,1.322,1.322v0.947C19.092,21.822,18.499,22.415,17.77,22.415z M13.979,19.823
		c-0.178,0-0.322,0.145-0.322,0.322v0.947c0,0.178,0.145,0.322,0.322,0.322h3.79c0.178,0,0.322-0.145,0.322-0.322v-0.947
		c0-0.178-0.145-0.322-0.322-0.322H13.979z"/>
</g>
</svg>
